<?xml version="1.0" standalone="no"?>
<!DOCTYPE svg PUBLIC "-//W3C//DTD SVG 20010904//EN"
 "http://www.w3.org/TR/2001/REC-SVG-20010904/DTD/svg10.dtd">
<svg version="1.0" xmlns="http://www.w3.org/2000/svg"
 width="500.000000pt" height="500.000000pt" viewBox="0 0 500.000000 500.000000"
 preserveAspectRatio="xMidYMid meet">
<metadata>
Created by potrace 1.14, written by Peter Selinger 2001-2017
</metadata>
<g transform="translate(0.000000,500.000000) scale(0.100000,-0.100000)"
fill="#000000" stroke="none">
<path d="M2743 4892 c-39 -16 -49 -25 -192 -177 -97 -103 -141 -184 -144 -264
-2 -54 -10 -61 -49 -40 -36 19 -188 20 -254 2 -77 -22 -124 -52 -223 -142
-115 -105 -150 -174 -137 -264 10 -68 34 -84 182 -127 111 -32 141 -37 214
-35 58 2 102 9 138 24 63 25 66 25 58 5 -8 -22 -20 -112 -19 -154 1 -81 34
-184 82 -256 l39 -59 -2 -110 c-1 -60 -4 -110 -6 -109 -42 6 -144 59 -186 96
-72 62 -137 83 -264 82 -113 -1 -177 -22 -273 -89 -34 -24 -104 -65 -156 -91
-171 -84 -241 -185 -275 -394 -12 -73 -14 -235 -3 -275 3 -11 10 -33 17 -50 8
-20 8 -31 1 -33 -16 -5 -13 -22 3 -22 8 0 17 -15 21 -37 3 -20 16 -60 27 -90
23 -62 73 -103 125 -103 42 0 236 93 285 136 24 22 64 41 125 59 48 15 105 36
127 47 21 11 35 14 30 7 -13 -21 -7 -143 12 -229 2 -14 7 -45 10 -70 9 -78 62
-210 102 -255 21 -25 144 -131 192 -167 73 -54 80 -64 85 -114 8 -80 16 -137
25 -179 5 -22 11 -53 14 -70 13 -71 27 -141 32 -160 6 -20 -89 121 -139 208
-57 98 -166 178 -262 193 -22 3 -60 10 -85 14 -41 8 -165 7 -200 -2 -45 -11
-224 -82 -269 -107 -129 -70 -174 -156 -146 -276 24 -101 62 -146 161 -185 33
-13 82 -40 111 -61 64 -48 116 -77 168 -96 80 -29 277 -10 399 39 41 16 66 19
126 15 l75 -5 56 -60 c63 -67 74 -96 94 -247 3 -27 26 -140 51 -250 25 -110
47 -210 50 -223 2 -12 16 -32 29 -44 14 -12 25 -29 25 -37 1 -10 7 -5 16 12 8
15 18 27 23 27 16 0 63 102 64 138 0 20 -7 73 -17 117 -10 44 -20 94 -23 110
-2 17 -16 75 -31 130 -21 80 -26 123 -26 215 0 104 3 123 32 204 17 50 36 94
41 99 11 11 92 12 238 4 131 -7 191 8 293 74 136 88 256 270 268 406 4 46 1
58 -23 89 -37 48 -101 88 -188 115 -95 30 -266 33 -344 6 -123 -43 -264 -233
-295 -396 -11 -65 -95 -253 -102 -231 -9 29 -28 117 -47 215 -31 161 -32 165
-17 160 7 -2 25 -7 41 -10 62 -12 81 -16 89 -21 11 -7 10 7 -1 25 -6 10 -2 24
14 45 12 17 38 65 58 108 19 42 58 109 85 150 89 132 101 168 108 336 12 261
10 283 -31 367 -13 27 -22 51 -20 53 2 2 43 -13 92 -33 220 -91 239 -93 438
-44 131 32 187 57 223 104 33 41 36 78 13 173 -11 48 -25 120 -31 159 -18 111
-103 273 -175 335 -38 32 -130 76 -187 89 -32 6 -58 15 -58 19 0 4 12 40 26
81 53 151 37 305 -51 482 -65 129 -102 170 -177 192 -80 23 -86 29 -56 57 28
26 166 215 195 268 32 58 44 101 50 191 9 141 -19 191 -108 188 -24 -1 -60 3
-79 9 -49 16 -191 33 -244 31 -25 -2 -62 -9 -83 -17z m177 -121 c0 -23 -66
-150 -93 -178 -32 -34 -49 -42 -42 -20 2 6 6 32 9 57 6 51 19 97 35 129 9 16
21 21 51 21 22 0 40 -4 40 -9z m-251 -171 c-13 -92 -57 -205 -74 -189 -2 3 -7
30 -10 60 -4 29 -8 60 -11 67 -3 10 90 122 101 122 1 0 -2 -27 -6 -60z m421
-55 c0 -3 -10 -21 -22 -40 -15 -23 -58 -57 -119 -95 -53 -33 -100 -60 -104
-60 -4 0 -5 9 -2 21 5 17 2 20 -14 16 -30 -8 -23 5 34 61 46 45 63 55 116 68
35 8 71 19 80 24 18 11 31 13 31 5z m-836 -324 c55 -1 42 -8 -29 -16 -33 -4
-74 -10 -91 -14 -17 -5 -48 -5 -70 -1 -21 4 -34 9 -29 10 6 1 19 4 30 6 57 13
112 21 130 18 11 -1 38 -3 59 -3z m726 -163 c90 -31 96 -35 119 -76 13 -24 21
-45 18 -48 -2 -3 -29 5 -58 17 -70 27 -199 65 -270 77 -62 12 -139 40 -139 52
0 4 53 8 118 9 108 1 125 -1 212 -31z m-870 -3 c-20 -24 -102 -77 -98 -63 4
12 93 78 105 78 3 0 0 -7 -7 -15z m155 -35 c-37 -38 -56 -49 -54 -32 0 8 78
72 87 72 3 0 -12 -18 -33 -40z m497 -106 c62 -8 259 -75 353 -121 l81 -38 0
-82 c1 -92 6 -89 -76 -38 -19 12 -74 36 -123 53 -157 57 -206 90 -263 179 -35
55 -41 68 -25 58 6 -3 29 -8 53 -11z m-136 -111 c57 -82 62 -91 99 -221 19
-65 38 -132 44 -150 9 -31 9 -32 -17 -26 -69 17 -144 63 -153 95 -25 88 -40
187 -38 245 3 78 9 114 18 114 4 0 25 -26 47 -57z m293 -326 c7 -23 12 -46 13
-52 0 -5 4 -20 9 -32 9 -23 0 -37 -17 -25 -8 6 -64 158 -64 175 0 4 11 0 24
-8 13 -9 29 -34 35 -58z m227 -8 c3 -6 2 -15 -3 -20 -6 -6 -20 3 -36 25 -15
19 -27 38 -27 41 0 8 57 -32 66 -46z m-466 -224 c-16 -22 -42 -53 -59 -69 -28
-26 -31 -28 -32 -10 -2 33 6 155 10 160 1 1 25 -8 55 -20 l53 -21 -27 -40z
m635 17 c75 -22 165 -89 165 -123 0 -5 -26 -7 -58 -5 -32 2 -78 0 -103 -5
-130 -25 -262 -31 -324 -15 l-30 8 50 44 c27 24 73 56 103 71 29 15 56 31 58
35 6 10 93 3 139 -10z m-435 -48 c-32 -28 -100 -59 -100 -46 0 10 49 56 74 69
10 6 27 8 37 6 16 -4 14 -8 -11 -29z m-914 -88 c-10 -6 -46 -31 -79 -55 -60
-43 -61 -43 -155 -47 -105 -4 -167 -20 -236 -64 -25 -16 -46 -24 -46 -18 0 19
83 93 125 111 22 10 66 31 97 48 46 24 75 31 150 37 51 4 109 5 128 3 31 -3
33 -5 16 -15z m464 -128 c3 -4 3 -39 -1 -78 -5 -61 -10 -73 -35 -92 -51 -41
-148 -107 -152 -104 -2 2 4 20 12 40 9 21 22 71 31 112 9 42 27 98 41 125 l25
50 37 -22 c20 -13 39 -26 42 -31z m-354 -44 c-8 -44 -22 -128 -31 -189 -25
-168 -57 -220 -158 -250 -45 -14 -47 -13 -37 5 5 10 13 35 16 55 3 21 7 46 9
56 2 11 7 56 11 102 8 95 36 202 60 228 18 20 135 82 141 75 2 -2 -3 -39 -11
-82z m1427 44 c37 -9 49 -17 52 -35 3 -13 7 -35 10 -49 l6 -26 -63 6 c-35 4
-80 10 -100 15 -36 8 -173 79 -166 86 2 2 26 7 53 10 28 4 51 8 53 10 6 6 108
-5 155 -17z m-833 -61 c19 -62 59 -149 78 -172 17 -19 17 -19 -13 0 -16 10
-56 38 -87 62 l-58 44 0 59 c0 46 4 61 17 69 24 13 46 -8 63 -62z m376 -23
c62 -103 147 -216 188 -251 40 -36 38 -39 -14 -20 -96 33 -128 69 -211 232
-22 44 -47 90 -55 102 -15 21 -15 21 19 11 26 -8 42 -25 73 -74z m-178 -34
c10 -19 29 -52 42 -74 22 -36 22 -38 3 -28 -31 17 -69 73 -97 143 l-26 64 30
-35 c16 -19 37 -51 48 -70z m-1168 13 c0 -3 -20 -33 -43 -67 -24 -33 -58 -88
-75 -121 -25 -46 -42 -65 -75 -83 -23 -12 -56 -36 -74 -52 l-32 -30 -7 34 c-6
36 -8 72 -5 118 3 64 189 203 276 206 19 1 35 -1 35 -5z m1664 -153 c48 -61
49 -67 1 -31 -37 29 -125 120 -125 131 0 22 75 -38 124 -100z m-1599 -32 c-9
-86 -21 -131 -56 -215 -44 -101 -54 -99 -53 7 2 80 5 94 36 152 39 73 68 118
75 118 2 0 2 -28 -2 -62z m969 -94 c66 -33 120 -93 140 -156 10 -32 16 -63 14
-70 -3 -7 -28 21 -56 62 -29 41 -87 111 -130 154 -45 47 -63 69 -42 54 19 -13
52 -33 74 -44z m-356 29 c-8 -10 -24 -29 -34 -41 -10 -13 -29 -36 -42 -50 -13
-15 -49 -62 -79 -104 -31 -43 -60 -78 -64 -78 -12 0 11 82 34 125 14 25 54 64
105 103 84 63 107 76 80 45z m295 -181 c11 -13 35 -46 55 -75 19 -29 59 -83
90 -120 52 -66 54 -71 55 -130 0 -64 -14 -108 -60 -186 l-26 -44 -18 35 c-10
20 -36 90 -58 155 -22 65 -67 176 -101 248 -63 132 -63 133 -51 225 1 5 88
-77 114 -108z m-246 20 c-2 -21 -25 -83 -52 -138 -26 -54 -52 -110 -57 -124
-20 -50 -55 -197 -54 -228 1 -18 -2 -32 -5 -32 -9 0 -49 85 -65 138 -23 75 7
135 179 354 28 37 54 67 55 68 2 0 2 -17 -1 -38z m-974 -77 c-3 -9 -8 -14 -10
-11 -3 3 -2 9 2 15 9 16 15 13 8 -4z m987 -296 c6 -35 12 -102 15 -149 3 -47
8 -104 9 -127 2 -23 2 -44 -1 -47 -9 -9 -92 65 -88 77 2 7 6 53 9 102 4 80 33
221 43 211 2 -2 8 -32 13 -67z m169 -77 c24 -70 57 -155 74 -190 16 -35 27
-65 24 -68 -11 -11 -115 170 -124 215 -21 115 -29 171 -24 171 3 0 26 -57 50
-128z m661 -336 c0 -2 -15 -19 -32 -38 -18 -19 -55 -64 -83 -101 -32 -42 -67
-75 -97 -92 l-47 -25 10 37 c6 21 15 52 21 68 15 40 84 142 100 148 16 6 128
9 128 3z m167 -44 c8 -5 -7 -17 -45 -35 l-57 -28 40 35 c44 39 45 39 62 28z
m-1503 -219 c66 -48 97 -75 170 -151 l60 -61 -40 11 c-21 7 -64 31 -94 54 -64
48 -164 104 -234 130 -27 10 -43 20 -35 22 8 2 23 7 34 12 64 27 79 25 139
-17z m246 -16 c8 -7 29 -30 46 -52 68 -88 57 -86 -43 10 -63 61 -72 73 -48 65
17 -6 37 -16 45 -23z m1210 -22 c0 -8 -57 -34 -86 -39 -16 -3 -51 -7 -79 -11
-27 -3 -59 -7 -70 -9 -11 -2 -29 0 -40 4 -34 12 60 38 159 44 48 3 91 7 94 10
7 7 22 8 22 1z m-1775 -33 c-3 -3 -11 0 -18 7 -9 10 -8 11 6 5 10 -3 15 -9 12
-12z m143 -58 c17 -7 32 -15 32 -18 0 -7 -94 24 -105 35 -11 13 17 6 73 -17z
m72 -152 c24 -9 24 -9 -10 -20 -77 -24 -97 -24 -142 -1 -38 19 -41 23 -23 30
24 10 140 4 175 -9z m273 -47 l29 -6 -29 -22 c-15 -12 -29 -25 -31 -29 -2 -4
-20 -17 -40 -30 -42 -26 -115 -33 -151 -14 l-25 14 35 17 c19 10 62 33 97 51
34 18 68 32 75 29 6 -2 25 -6 40 -10z"/>
</g>
</svg>
